HIERARCHY
ROOT Hips
{
	OFFSET 0.000000 0.000000 0.000000
	CHANNELS 6 Xposition Yposition Zposition Xrotation Yrotation Zrotation
	JOINT LeftUpLeg_virtual
	{
		OFFSET 0.000000 0.000000 0.000000
		CHANNELS 3 Xrotation Yrotation Zrotation
		JOINT LeftUpLeg
		{
			OFFSET 11.394100 -6.187798 -0.413800
			CHANNELS 3 Xrotation Yrotation Zrotation
			JOINT LeftLeg
			{
				OFFSET 0.430247 -32.302673 3.732800
				CHANNELS 3 Xrotation Yrotation Zrotation
				JOINT LeftFoot
				{
					OFFSET -0.430247 -48.264931 -6.423300
					CHANNELS 3 Xrotation Yrotation Zrotation
					JOINT LeftToeBase
					{
						OFFSET 4.230900 -16.068199 23.438400
						CHANNELS 3 Xrotation Yrotation Zrotation
						JOINT LeftToe_End
						{
							OFFSET 4.510700 0.695400 19.974600
							CHANNELS 3 Xrotation Yrotation Zrotation
							End Site
							{
								OFFSET 0 0 0
							}
						}
					}
				}
			}
		}
	}
	JOINT RightUpLeg_virtual
	{
		OFFSET 0.000000 0.000000 0.000000
		CHANNELS 3 Xrotation Yrotation Zrotation
		JOINT RightUpLeg
		{
			OFFSET -11.333700 -6.187798 -0.413800
			CHANNELS 3 Xrotation Yrotation Zrotation
			JOINT RightLeg
			{
				OFFSET -0.430392 -32.302628 3.733000
				CHANNELS 3 Xrotation Yrotation Zrotation
				JOINT RightFoot
				{
					OFFSET 0.430392 -48.264973 -6.423500
					CHANNELS 3 Xrotation Yrotation Zrotation
					JOINT RightToeBase
					{
						OFFSET -4.230900 -16.068199 23.438400
						CHANNELS 3 Xrotation Yrotation Zrotation
						JOINT RightToe_End
						{
							OFFSET -4.510700 0.695400 19.974600
							CHANNELS 3 Xrotation Yrotation Zrotation
							End Site
							{
								OFFSET 0 0 0
							}
						}
					}
				}
			}
		}
	}
	JOINT Spine_virtual
	{
		OFFSET 0.000000 0.000000 0.000000
		CHANNELS 3 Xrotation Yrotation Zrotation
		JOINT Spine
		{
			OFFSET -0.002400 12.777504 0.315300
			CHANNELS 3 Xrotation Yrotation Zrotation
			JOINT Spine1
			{
				OFFSET -0.002067 5.816869 0.032633
				CHANNELS 3 Xrotation Yrotation Zrotation
				JOINT Spine1_split
				{
					OFFSET -0.002067 5.816869 0.032633
					CHANNELS 3 Xrotation Yrotation Zrotation
					JOINT Spine2
					{
						OFFSET -0.002067 5.816869 0.032633
						CHANNELS 3 Xrotation Yrotation Zrotation
						JOINT Neck_virtual
						{
							OFFSET 0.000000 0.000000 0.000000
							CHANNELS 3 Xrotation Yrotation Zrotation
							JOINT Neck
							{
								OFFSET -0.003700 21.199493 -0.826900
								CHANNELS 3 Xrotation Yrotation Zrotation
								JOINT Head
								{
									OFFSET 0.000000 20.442200 4.834800
									CHANNELS 3 Xrotation Yrotation Zrotation
									JOINT HeadTop_End
									{
										OFFSET 0.000000 34.668396 4.968400
										CHANNELS 3 Xrotation Yrotation Zrotation
										End Site
										{
											OFFSET 0 0 0
										}
									}
								}
							}
						}
						JOINT LeftShoulder_virtual
						{
							OFFSET 0.000000 0.000000 0.000000
							CHANNELS 3 Xrotation Yrotation Zrotation
							JOINT LeftShoulder
							{
								OFFSET 3.288150 8.794197 -1.372250
								CHANNELS 3 Xrotation Yrotation Zrotation
								JOINT LeftShoulder_split
								{
									OFFSET 3.288150 8.794197 -1.372250
									CHANNELS 3 Xrotation Yrotation Zrotation
									JOINT LeftArm
									{
										OFFSET 11.953299 -2.279007 -0.146200
										CHANNELS 3 Xrotation Yrotation Zrotation
										JOINT LeftForeArm
										{
											OFFSET 18.448900 0.000000 0.000000
											CHANNELS 3 Xrotation Yrotation Zrotation
											JOINT LeftHand
											{
												OFFSET 29.527798 0.000000 0.000000
												CHANNELS 3 Xrotation Yrotation Zrotation
												End Site
												{
													OFFSET 0 0 0
												}
											}
										}
									}
								}
							}
						}
						JOINT RightShoulder_virtual
						{
							OFFSET 0.000000 0.000000 0.000000
							CHANNELS 3 Xrotation Yrotation Zrotation
							JOINT RightShoulder
							{
								OFFSET -3.249400 8.794197 -1.372250
								CHANNELS 3 Xrotation Yrotation Zrotation
								JOINT RightShoulder_split
								{
									OFFSET -3.249400 8.794197 -1.372250
									CHANNELS 3 Xrotation Yrotation Zrotation
									JOINT RightArm
									{
										OFFSET -11.953299 -2.279007 -0.146200
										CHANNELS 3 Xrotation Yrotation Zrotation
										JOINT RightForeArm
										{
											OFFSET -18.448900 0.000000 0.000000
											CHANNELS 3 Xrotation Yrotation Zrotation
											JOINT RightHand
											{
												OFFSET -29.527802 0.000000 0.000000
												CHANNELS 3 Xrotation Yrotation Zrotation
												End Site
												{
													OFFSET 0 0 0
												}
											}
										}
									}
								}
							}
						}
					}
				}
			}
		}
	}
}
MOTION
Frames: 5
Frame Time: 0.03333333
1.647762 89.591362 -2.653648 0.000000 0.000000 0.000000 7.598239 -66.668630 9.079687 -35.675755 15.458941 23.833778 32.873035 -6.581073 2.542693 -5.454362 -4.806303 -14.363242 -0.302338 -0.263006 -0.371201 0.000000 0.000000 0.000000 5.632985 -66.075421 8.037760 -34.605871 -21.889541 -31.107980 32.131136 5.957021 -5.207888 -9.442997 0.920748 20.749088 5.412603 0.101265 -0.071184 0.000000 0.000000 0.000000 7.349714 -64.413970 8.739322 12.263708 -0.654061 -4.491163 7.351012 1.731423 -0.986422 0.551618 3.849846 -0.706074 0.000000 0.000000 0.000000 9.737972 1.784999 -2.103038 7.132978 5.041197 4.636908 -24.663986 52.842694 18.812122 0.000000 0.000000 0.000000 9.034618 1.115308 -1.065136 5.504342 -1.556722 -12.549089 -2.846066 -4.664892 2.652799 -34.026858 13.777033 -27.683759 6.721264 -53.836101 4.168709 0.000000 0.000000 0.000000 7.831509 1.703264 -0.589530 -7.962876 7.766341 14.959600 3.038136 0.592014 -1.667563 17.224024 -6.555366 33.136738 -19.784396 39.664005 20.107090 0.000000 0.000000 0.000000 
1.437053 89.847794 -2.259045 0.000000 0.000000 0.000000 7.199191 -66.584004 8.441800 -35.864968 15.192695 24.118989 33.318554 -6.293268 2.611058 -5.439072 -4.884284 -14.562054 -0.312969 -0.254983 -0.365552 0.000000 0.000000 0.000000 5.569117 -66.409369 7.714200 -33.616630 -21.525804 -30.454284 30.869221 6.056184 -5.163776 -8.707413 1.317181 21.341674 3.822549 0.068055 -0.006378 0.000000 0.000000 0.000000 7.144018 -64.667596 8.293252 12.290283 -0.669419 -4.146905 7.370805 1.743903 -1.440400 0.080955 3.231313 -0.567362 0.000000 0.000000 0.000000 8.794819 1.806330 -2.292881 7.526054 5.039808 4.478091 -24.317092 54.048298 17.999992 0.000000 0.000000 0.000000 8.696067 1.149642 -1.538852 5.421779 -2.108427 -12.835488 -3.153036 -2.892227 2.205418 -33.099073 16.230439 -27.075256 7.409531 -51.572470 4.665621 0.000000 0.000000 0.000000 7.408108 1.877168 -0.786527 -9.200619 6.410431 15.062553 3.787806 -0.258939 -0.377312 15.118554 -5.587912 31.539406 -18.644140 39.050732 19.795971 0.000000 0.000000 0.000000 
1.132823 90.162506 -1.785908 0.000000 0.000000 0.000000 6.080089 -67.084492 6.994443 -35.904908 14.779177 24.664868 34.040949 -5.653643 2.640655 -5.462135 -4.759908 -14.635600 -0.444166 -0.219884 -0.331939 0.000000 0.000000 0.000000 4.935338 -67.222735 6.667484 -32.254209 -21.151117 -29.759421 29.307102 6.335830 -4.997379 -7.952545 1.858963 21.763206 2.764281 0.068908 0.164927 0.000000 0.000000 0.000000 6.353442 -65.100008 7.148775 12.029864 -0.700426 -3.710294 6.755080 1.438704 -1.549614 0.258147 2.827374 -0.257633 0.000000 0.000000 0.000000 7.457303 1.372373 -2.031740 7.584498 4.986795 3.649387 -22.057765 56.311433 14.625271 0.000000 0.000000 0.000000 7.610148 0.824102 -1.626789 4.955853 -3.400846 -14.420724 -4.016498 -1.814995 2.801183 -28.172751 20.313522 -26.467366 6.617924 -49.006956 4.169398 0.000000 0.000000 0.000000 6.463790 1.625765 -0.690899 -11.311010 3.892637 14.815633 4.442962 -1.081908 0.182578 13.335386 -10.008999 32.720366 -17.543863 41.082932 19.522173 0.000000 0.000000 0.000000 
0.788450 90.317886 -1.411011 0.000000 0.000000 0.000000 4.257624 -67.894491 4.854032 -35.920119 14.278033 25.328146 35.103405 -4.763397 2.661679 -5.618530 -4.521107 -14.568421 -0.579217 -0.163006 -0.305603 0.000000 0.000000 0.000000 3.510659 -68.067049 4.819816 -30.921281 -20.870328 -29.253096 28.088726 6.633805 -4.736299 -7.438277 2.322829 22.017226 2.300045 0.109002 0.320761 0.000000 0.000000 0.000000 5.126611 -65.568607 5.485270 11.508570 -0.770881 -3.253308 5.636827 0.922454 -1.347110 0.343408 1.953589 0.224981 0.000000 0.000000 0.000000 5.958476 0.605012 -1.428888 7.207863 4.960404 2.377751 -17.312682 58.899487 8.661026 0.000000 0.000000 0.000000 6.099881 0.249012 -1.370501 4.184930 -4.975693 -16.914608 -4.601860 -1.507478 4.334821 -20.428514 24.716310 -26.293242 5.225272 -47.877662 3.397836 0.000000 0.000000 0.000000 5.219063 1.053940 -0.345955 -14.057045 0.887464 13.426648 4.141939 -0.968157 -0.181339 12.381733 -19.696128 36.842655 -16.933909 47.019893 19.367662 0.000000 0.000000 0.000000 
0.476443 90.149826 -1.016453 0.000000 0.000000 0.000000 2.067147 -68.456076 2.410267 -36.072244 13.678057 25.948237 36.555084 -3.806388 2.701089 -5.892734 -4.408181 -14.466419 -0.666433 -0.101639 -0.253790 0.000000 0.000000 0.000000 1.650673 -68.363561 2.581851 -29.882470 -20.795199 -29.056400 27.787084 6.829656 -4.489424 -7.465624 2.416303 22.199588 1.625520 0.180934 0.302142 0.000000 0.000000 0.000000 3.767585 -65.912282 3.620550 10.734424 -0.840245 -2.834054 4.319527 0.341798 -0.906328 0.586450 0.982453 0.201511 0.000000 0.000000 0.000000 4.565075 -0.285494 -0.673016 6.259980 5.012679 0.855212 -10.153518 60.823060 0.584239 0.000000 0.000000 0.000000 4.406901 -0.365119 -0.897957 3.200191 -6.383444 -19.459139 -4.236664 -1.851838 6.381233 -11.506884 28.398637 -26.922391 4.150664 -48.513959 2.909269 0.000000 0.000000 0.000000 3.931759 0.356619 0.063168 -17.276383 -2.163249 10.170039 2.683796 0.015878 -0.393046 11.906924 -33.748453 43.117949 -18.710724 58.823788 21.075761 0.000000 0.000000 0.000000 
